<?xml version="1.0" encoding="utf-8"?>
<!-- Generator: Adobe Illustrator 24.0.0, SVG Export Plug-In . SVG Version: 6.00 Build 0)  -->
<svg version="1.1" xmlns="http://www.w3.org/2000/svg" xmlns:xlink="http://www.w3.org/1999/xlink" x="0px" y="0px"
	 viewBox="0 0 1366 768" style="enable-background:new 0 0 1366 768;" xml:space="preserve">
<style type="text/css">
	.st0{fill:url(#SVGID_1_);}
	.st1{display:none;}
	.st2{clip-path:url(#SVGID_3_);}
	.st3{fill:url(#SVGID_4_);stroke:#000000;stroke-miterlimit:10;}
	.st4{fill:url(#SVGID_5_);}
	.st5{fill:url(#SVGID_6_);}
	.st6{fill:url(#SVGID_7_);}
	.st7{fill:url(#SVGID_8_);}
	.st8{fill:url(#SVGID_9_);}
	.st9{fill:#E6F7FE;}
	.st10{fill:#FFFFFF;}
</style>
<g id="Layer_5">
</g>
<g id="Layer_6">
	<linearGradient id="SVGID_1_" gradientUnits="userSpaceOnUse" x1="-139" y1="-1378" x2="-139" y2="-1378">
		<stop  offset="0" style="stop-color:#5DBDFA"/>
		<stop  offset="0.1328" style="stop-color:#66C1FA"/>
		<stop  offset="0.3536" style="stop-color:#80CAFB"/>
		<stop  offset="0.6351" style="stop-color:#A9DAFD"/>
		<stop  offset="0.9635" style="stop-color:#E2F0FF"/>
		<stop  offset="0.9944" style="stop-color:#E8F2FF"/>
	</linearGradient>
	<path class="st0" d="M-139-1378"/>
</g>
<g id="Layer_7">
</g>
<g id="Layer_1_copy">
</g>
<g id="Layer_1" class="st1">
	
		<image style="display:inline;overflow:visible;" width="800" height="600" xlink:href="jobest-landing-page-thumb.jpg"  transform="matrix(2.8535 0 0 2.9783 -81 -402)">
	</image>
	
		<image style="overflow:visible;" width="800" height="600" xlink:href="jobest-landing-page-thumb.jpg"  transform="matrix(2.8535 0 0 2.9783 -239 -2791)">
	</image>
</g>
<g id="Layer_3">
</g>
<g id="Layer_2">
</g>
<g id="Layer_8">
</g>
<g id="Layer_9">
	<g>
		<defs>
			<path id="SVGID_2_" d="M134,37.5h1082.9l-3.2,543.3c0,0,18.2,22.7,18.2,26.2l-4.6,123.9c0,0-35-100.9-85-147.7L134,582.6V37.5z"
				/>
		</defs>
		<clipPath id="SVGID_3_">
			<use xlink:href="#SVGID_2_"  style="overflow:visible;"/>
		</clipPath>
		<g class="st2">
			<g>
				<linearGradient id="SVGID_4_" gradientUnits="userSpaceOnUse" x1="134.3964" y1="308.9828" x2="1217.3336" y2="308.9828">
					<stop  offset="0" style="stop-color:#55E4F5"/>
					<stop  offset="0.4782" style="stop-color:#58DBF6"/>
					<stop  offset="0.9944" style="stop-color:#5CCBF7"/>
				</linearGradient>
				<rect x="134.4" y="37.2" class="st3" width="1082.9" height="543.7"/>
				<linearGradient id="SVGID_5_" gradientUnits="userSpaceOnUse" x1="594.605" y1="233.0943" x2="1216.9371" y2="233.0943">
					<stop  offset="0" style="stop-color:#5DBDFA"/>
					<stop  offset="0.2618" style="stop-color:#66BEF9"/>
					<stop  offset="0.6955" style="stop-color:#80BFF6"/>
					<stop  offset="0.9944" style="stop-color:#95C0F4"/>
				</linearGradient>
				<path class="st4" d="M594.6,428.6c0,0,174.4,17.5,290.2-199.4c0,0,84.8-220.4,332.2-188.9v193.1
					c-21.9-10.8-58.2-24.9-104.4-25.6c-63.3-0.9-85.7,32.4-198.8,95.2c-114.2,63.4-201.1,92.4-237,103.6
					C642.3,417.3,613.4,424.4,594.6,428.6z"/>
				<linearGradient id="SVGID_6_" gradientUnits="userSpaceOnUse" x1="626.0375" y1="440.538" x2="1263.8953" y2="251.2478">
					<stop  offset="0" style="stop-color:#83DDF3"/>
					<stop  offset="0.469" style="stop-color:#83DBF3"/>
					<stop  offset="0.6893" style="stop-color:#82D3F5"/>
					<stop  offset="0.8571" style="stop-color:#80C7F8"/>
					<stop  offset="0.9944" style="stop-color:#7DB5FC"/>
				</linearGradient>
				<path class="st5" d="M595,430.4c18.8-4.3,47.8-11.6,81.7-23.8c77.2-27.7,115.4-57,214.1-112c63.2-35.2,94.8-52.9,117.3-61.6
					c52.7-20.4,136.9-41.5,256.9-28c-7.7,49.4-15.3,98.9-23,148.3c-60.4-59.1-114.3-75.1-149.8-79.8
					c-104.3-13.6-171.5,54.7-394,126.6C653.6,414.7,617,424.6,595,430.4z"/>
				<linearGradient id="SVGID_7_" gradientUnits="userSpaceOnUse" x1="503.037" y1="383.7527" x2="1282.3416" y2="383.7527">
					<stop  offset="0" style="stop-color:#80D7E5"/>
					<stop  offset="0.2892" style="stop-color:#7BCEEA"/>
					<stop  offset="0.7685" style="stop-color:#6FB4F6"/>
					<stop  offset="0.9944" style="stop-color:#68A6FD"/>
				</linearGradient>
				<path class="st6" d="M503,494.1c0.4,0.5,52.8-28.3,130-65.8c218.3-105.8,330.1-158.6,459-154.6c43.8,1.3,110.2,9.3,190.3,44.1
					c-4,56.7-7.9,113.4-11.9,170c-72.4-70.2-146.5-99.7-187.9-112.7c-178.9-55.9-347.8,9.1-405.9,31.5
					C579,444.2,502.6,493.4,503,494.1z"/>
				<linearGradient id="SVGID_8_" gradientUnits="userSpaceOnUse" x1="416.3825" y1="485.6814" x2="1289.4766" y2="485.6814">
					<stop  offset="0" style="stop-color:#74E1F6"/>
					<stop  offset="0.343" style="stop-color:#77D8F8"/>
					<stop  offset="0.9117" style="stop-color:#7FBEFE"/>
					<stop  offset="0.9944" style="stop-color:#80BAFF"/>
				</linearGradient>
				<path class="st7" d="M416.6,631.9c-4.5-3.4,52.8-95.4,160.9-170c41.2-28.5,237.6-164,474.1-109.9
					c112.2,25.7,190.7,84.3,237.8,129.4c-25.4,34.5-50.7,69-76.1,103.6c-31-29.8-123.9-111.5-276.7-137.8
					c-19.9-3.4-180.8-29.1-339.3,46.9C479.6,550.5,421,635.2,416.6,631.9z"/>
				<linearGradient id="SVGID_9_" gradientUnits="userSpaceOnUse" x1="1207.8202" y1="384.9" x2="1231.6036" y2="384.9">
					<stop  offset="0" style="stop-color:#5DBDFA"/>
					<stop  offset="0.1328" style="stop-color:#66C1FA"/>
					<stop  offset="0.3536" style="stop-color:#80CAFB"/>
					<stop  offset="0.6351" style="stop-color:#A9DAFD"/>
					<stop  offset="0.9635" style="stop-color:#E2F0FF"/>
					<stop  offset="0.9944" style="stop-color:#E8F2FF"/>
				</linearGradient>
				<polygon class="st8" points="1231.6,384.9 1207.8,384.9 1207.8,384.9 1231.6,384.9 				"/>
				<path class="st9" d="M589.8,37.5c0,0,135.6,43.4,145.1,142.7c0,0,12.9,66.5,6.8,122.5c0,0-12.4,129.4,113.7,140.6
					c0,0,182.3-5.6,286.2,70.7c0,0,84,70,90.4,93.1l-4,125.9c0,0-31.7-101.5-94.3-158.1H134.8V37.5H589.8z"/>
				<path class="st10" d="M430.1,37.5l-295.7-0.4v545.8H1142c0,0-109.9-133.2-280.9-134c0,0-111.1,2.8-114.3-138.6
					c0,0-8.8-211.8-235.7-257.2C511.2,53.1,524.7,53.1,430.1,37.5z"/>
			</g>
		</g>
	</g>
</g>
</svg>
